<svg width="24" height="24" viewBox="0 0 24 24" fill="none" xmlns="http://www.w3.org/2000/svg">
<path d="M10.6122 21.9186L10.6115 21.9179C7.51212 18.8548 4.97783 16.3493 3.21241 13.9969C1.45368 11.6533 0.5 9.5147 0.5 7.19346C0.5 3.39987 3.2198 0.5 6.6 0.5C8.51981 0.5 10.3836 1.47681 11.606 3.04135L12 3.54563L12.394 3.04135C13.6164 1.47681 15.4802 0.5 17.4 0.5C20.7802 0.5 23.5 3.39987 23.5 7.19346C23.5 9.51471 22.5463 11.6534 20.7875 13.9987C19.0263 16.3471 16.5 18.8493 13.4109 21.9089L13.3892 21.9304L13.3881 21.9314L12.0013 23.297L10.6122 21.9186Z" fill="#D9D9D9" stroke="#2F333C"/>
</svg>
